HIERARCHY
ROOT Hips
{
	OFFSET 51.577801 3.599044 96.147003
	CHANNELS 6 Xposition Yposition Zposition Xrotation Yrotation Zrotation
	JOINT spine
	{
		OFFSET 0.000000 -0.467660 8.132492
		CHANNELS 3 Xrotation Yrotation Zrotation
		JOINT spine1
		{
			OFFSET 0.000000 -0.000002 10.349800
			CHANNELS 3 Xrotation Yrotation Zrotation
			JOINT spine2
			{
				OFFSET 0.000000 -0.000002 9.916992
				CHANNELS 3 Xrotation Yrotation Zrotation
				JOINT Neck
				{
					OFFSET 0.000000 -1.213904 25.461006
					CHANNELS 3 Xrotation Yrotation Zrotation
					JOINT Head
					{
						OFFSET 0.000000 -0.000001 7.692444
						CHANNELS 3 Xrotation Yrotation Zrotation
						End Site
						{
							OFFSET 0.000000 6.140627 18.619995
						}
					}
				}
				JOINT RightShoulder
				{
					OFFSET -4.175751 0.581443 10.709602
					CHANNELS 3 Xrotation Yrotation Zrotation
					JOINT RightArm
					{
						OFFSET 0.000000 -0.000002 14.046600
						CHANNELS 3 Xrotation Yrotation Zrotation
						JOINT RightArmRoll
						{
							OFFSET 0.000000 -0.000001 7.090988
							CHANNELS 3 Xrotation Yrotation Zrotation
							JOINT RightForeArm
							{
								OFFSET 0.000000 -0.000003 20.653503
								CHANNELS 3 Xrotation Yrotation Zrotation
								JOINT RightForeArmRoll
								{
									OFFSET 0.000000 -0.000001 7.957184
									CHANNELS 3 Xrotation Yrotation Zrotation
									JOINT RightHand
									{
										OFFSET 0.000000 -0.000003 15.968307
										CHANNELS 3 Xrotation Yrotation Zrotation
										End Site
										{
											OFFSET 0.000000 0.000000 0.100006
										}
									}
								}
							}
						}
					}
				}
				JOINT LeftShoulder
				{
					OFFSET 4.175751 0.581443 10.709602
					CHANNELS 3 Xrotation Yrotation Zrotation
					JOINT LeftArm
					{
						OFFSET 0.000000 -0.000002 14.046600
						CHANNELS 3 Xrotation Yrotation Zrotation
						JOINT LeftArmRoll
						{
							OFFSET 0.000000 -0.000001 7.090973
							CHANNELS 3 Xrotation Yrotation Zrotation
							JOINT LeftForeArm
							{
								OFFSET 0.000000 -0.000003 20.653503
								CHANNELS 3 Xrotation Yrotation Zrotation
								JOINT LeftForeArmRoll
								{
									OFFSET 0.000000 -0.000001 7.957184
									CHANNELS 3 Xrotation Yrotation Zrotation
									JOINT LeftHand
									{
										OFFSET 0.000000 -0.000003 15.968292
										CHANNELS 3 Xrotation Yrotation Zrotation
										End Site
										{
											OFFSET 0.000000 0.000000 0.100006
										}
									}
								}
							}
						}
					}
				}
			}
		}
	}
	JOINT RightUpLeg
	{
		OFFSET -7.208340 1.108840 -1.321823
		CHANNELS 3 Xrotation Yrotation Zrotation
		JOINT RightUpLegRoll
		{
			OFFSET 0.000000 -0.000003 18.723801
			CHANNELS 3 Xrotation Yrotation Zrotation
			JOINT RightLeg
			{
				OFFSET 0.000000 0.000004 -23.186600
				CHANNELS 3 Xrotation Yrotation Zrotation
				JOINT RightLegRoll
				{
					OFFSET 0.000000 -0.000004 23.262398
					CHANNELS 3 Xrotation Yrotation Zrotation
					JOINT RightFoot
					{
						OFFSET 0.000000 -0.000003 19.362099
						CHANNELS 3 Xrotation Yrotation Zrotation
						JOINT RightToeBase
						{
							OFFSET 0.000000 -0.000003 16.185699
							CHANNELS 3 Xrotation Yrotation Zrotation
							End Site
							{
								OFFSET 0.006859 0.903521 7.838623
							}
						}
					}
				}
			}
		}
	}
	JOINT LeftUpLeg
	{
		OFFSET 7.208340 1.108840 -1.321823
		CHANNELS 3 Xrotation Yrotation Zrotation
		JOINT LeftUpLegRoll
		{
			OFFSET 0.000000 -0.000003 18.723900
			CHANNELS 3 Xrotation Yrotation Zrotation
			JOINT LeftLeg
			{
				OFFSET 0.000000 -0.000004 23.186501
				CHANNELS 3 Xrotation Yrotation Zrotation
				JOINT LeftLegRoll
				{
					OFFSET 0.000000 -0.000004 23.477493
					CHANNELS 3 Xrotation Yrotation Zrotation
					JOINT LeftFoot
					{
						OFFSET 0.000000 -0.000003 19.147003
						CHANNELS 3 Xrotation Yrotation Zrotation
						JOINT LeftToeBase
						{
							OFFSET 0.000000 -0.000003 16.185699
							CHANNELS 3 Xrotation Yrotation Zrotation
							End Site
							{
								OFFSET -0.030746 0.903520 7.838623
							}
						}
					}
				}
			}
		}
	}
}
MOTION
Frames: 9
Frame Time: 0.041667
53.686401 -4.207401 96.063995 -4.780462 1.776303 1.999717 -0.417495 -0.659214 -0.138911 3.179374 -1.303721 -0.274117 4.824618 -1.307004 -0.258201 10.097110 0.073483 -4.165096 -1.333096 0.531412 -4.248472 -18.438645 -59.326866 -21.795446 -44.681288 -120.845212 -22.120739 0.000004 0.000001 -0.000001 0.049054 -6.428499 -0.693614 -0.000000 0.000011 -3.027070 -5.000203 -7.999150 0.000121 -13.975190 57.090471 16.447471 -38.875436 121.017114 27.983483 -0.000003 0.000013 0.000004 0.066509 8.468864 1.231087 0.000003 0.000000 3.061621 -5.000222 7.998930 -0.000139 -0.043886 -176.132001 2.266490 -179.999991 0.000005 -1.118001 167.304008 -1.168713 -0.548280 0.000002 0.000002 0.325031 72.086739 6.814332 2.124435 25.462711 -7.350779 0.004437 0.206588 171.749055 -2.502186 -0.000005 -0.000004 -0.892728 -14.649904 0.663459 0.743700 -0.000002 -0.000002 -0.247596 73.989629 -5.945335 -4.518649 25.456933 7.342039 -0.000001 
53.678902 -4.208613 96.061188 -4.740687 1.769489 1.992240 -0.421093 -0.658155 -0.136510 3.171270 -1.302523 -0.269810 4.816514 -1.305744 -0.253930 10.095913 0.085422 -4.163129 -1.325445 0.529850 -4.247241 -18.446000 -59.306177 -21.804095 -44.559382 -120.841168 -21.981267 0.000002 0.000001 -0.000002 0.049056 -6.421389 -0.692688 -0.000000 0.000010 -3.027070 -5.000206 -7.999150 0.000123 -13.985862 57.088248 16.460150 -38.817294 121.015967 27.911052 -0.000003 0.000013 0.000005 0.066500 8.464793 1.232353 0.000003 -0.000000 3.061610 -5.000224 7.998931 -0.000139 -0.095930 -176.125020 2.262557 -179.999991 0.000005 -1.118001 167.278108 -1.168594 -0.548809 0.000002 0.000002 0.325459 72.101219 6.815196 2.120890 25.462616 -7.350784 0.004285 0.168210 171.760037 -2.488338 -0.000005 -0.000004 -0.893130 -14.653607 0.664603 0.743354 -0.000002 -0.000001 -0.248562 73.996596 -5.948911 -4.510185 25.456930 7.342038 -0.000000 
53.675598 -4.214645 96.058289 -4.701218 1.762713 1.984616 -0.424580 -0.657121 -0.134113 3.163347 -1.301425 -0.265538 4.808588 -1.304593 -0.249690 10.094117 0.098350 -4.161108 -1.317526 0.527655 -4.245954 -18.453366 -59.284252 -21.812756 -44.435394 -120.838819 -21.840121 0.000000 0.000001 -0.000004 0.049054 -6.414450 -0.691739 -0.000001 0.000010 -3.027067 -5.000204 -7.999149 0.000121 -13.997023 57.086171 16.473400 -38.761552 121.013426 27.842752 -0.000005 0.000013 0.000005 0.066492 8.461491 1.233510 0.000001 0.000001 3.061600 -5.000223 7.998930 -0.000137 -0.147567 -176.119010 2.258612 -179.999991 0.000005 -1.118001 167.252399 -1.167502 -0.549113 0.000001 0.000002 0.325860 72.115712 6.816076 2.117145 25.462419 -7.350790 0.004034 0.130265 171.771020 -2.474695 -0.000005 -0.000004 -0.893520 -14.657110 0.665803 0.743029 -0.000003 -0.000002 -0.249517 74.003467 -5.952518 -4.501828 25.456931 7.342038 -0.000000 
53.672699 -4.226266 96.053688 -4.661972 1.755965 1.976901 -0.427992 -0.656106 -0.131718 3.155554 -1.300396 -0.261288 4.800805 -1.303502 -0.245475 10.092019 0.111970 -4.159039 -1.309433 0.525018 -4.244648 -18.460755 -59.261515 -21.821437 -44.311505 -120.836674 -21.699598 0.000002 0.000000 -0.000002 0.049054 -6.407639 -0.690774 -0.000001 0.000010 -3.027067 -5.000208 -7.999150 0.000123 -14.008521 57.084249 16.487073 -38.704746 121.011691 27.774187 -0.000005 0.000013 0.000005 0.066481 8.458724 1.234585 0.000003 -0.000000 3.061590 -5.000223 7.998931 -0.000138 -0.198925 -176.112029 2.254652 -179.999991 0.000004 -1.118001 167.226896 -1.166413 -0.549412 0.000001 0.000002 0.326242 72.130308 6.816979 2.113396 25.462216 -7.350782 0.003739 0.092624 171.781020 -2.461211 -0.000005 -0.000004 -0.893903 -14.660615 0.667040 0.742722 -0.000003 -0.000002 -0.250465 74.010338 -5.956119 -4.493571 25.456935 7.342038 0.000000 
53.670200 -4.229494 96.054893 -4.622849 1.749224 1.969139 -0.431359 -0.655100 -0.129324 3.147841 -1.299407 -0.257052 4.793081 -1.302451 -0.241272 10.089625 0.125986 -4.156938 -1.301237 0.522126 -4.243320 -18.468130 -59.238258 -21.830111 -44.185402 -120.836182 -21.556789 0.000002 0.000001 -0.000000 0.049052 -6.400881 -0.689800 -0.000000 0.000010 -3.027070 -5.000204 -7.999150 0.000124 -14.020218 57.082411 16.500993 -38.648267 121.010093 27.706500 -0.000004 0.000013 0.000005 0.066479 8.456273 1.235626 0.000002 0.000001 3.061580 -5.000225 7.998932 -0.000137 -0.250121 -176.106032 2.250674 -179.999991 0.000005 -1.118001 167.201405 -1.166295 -0.549931 0.000002 0.000002 0.326614 72.144918 6.817873 2.109646 25.462112 -7.350779 0.003432 0.055154 171.792016 -2.447825 -0.000005 -0.000004 -0.894283 -14.664020 0.668302 0.742423 -0.000003 -0.000002 -0.251407 74.017298 -5.959659 -4.485400 25.456933 7.342037 0.000000 
53.674000 -4.224832 96.053589 -4.583753 1.742482 1.961368 -0.434717 -0.654097 -0.126931 3.140137 -1.298428 -0.252818 4.785388 -1.301419 -0.237072 10.087233 0.140101 -4.154833 -1.293000 0.519171 -4.241981 -18.475520 -59.214892 -21.838784 -44.060290 -120.835049 -21.415411 0.000001 0.000000 -0.000001 0.049051 -6.394149 -0.688819 -0.000000 0.000010 -3.027070 -5.000201 -7.999153 0.000122 -14.031954 57.080567 16.514955 -38.592645 121.007688 27.640010 -0.000005 0.000012 0.000003 0.066474 8.453904 1.236649 0.000001 0.000000 3.061569 -5.000222 7.998930 -0.000138 -0.301280 -176.099052 2.246673 -179.999991 0.000004 -1.118001 167.175901 -1.165205 -0.550229 0.000002 0.000002 0.326983 72.159439 6.818822 2.105809 25.461910 -7.350782 0.003102 0.017729 171.802999 -2.434468 -0.000005 -0.000004 -0.894662 -14.667524 0.669568 0.742126 -0.000004 -0.000002 -0.252349 74.024170 -5.963255 -4.477141 25.456930 7.342038 -0.000001 
53.669998 -4.232145 96.051292 -4.544597 1.735719 1.953642 -0.438094 -0.653090 -0.124537 3.132404 -1.297429 -0.248578 4.777643 -1.300357 -0.232867 10.084937 0.154017 -4.152743 -1.284821 0.516345 -4.240648 -18.482874 -59.191738 -21.847431 -43.935315 -120.834133 -21.273889 0.000002 0.000001 -0.000001 0.049054 -6.387379 -0.687848 0.000002 0.000010 -3.027070 -5.000206 -7.999150 0.000123 -14.043598 57.078733 16.528808 -38.535985 121.006090 27.572039 -0.000005 0.000012 0.000006 0.066468 8.451375 1.237694 0.000003 -0.000000 3.061559 -5.000224 7.998930 -0.000138 -0.352515 -176.092071 2.242675 -179.999991 0.000005 -1.118999 167.150397 -1.165087 -0.550747 0.000001 0.000001 0.327357 72.174063 6.819730 2.101958 25.461712 -7.350779 0.002778 -0.019777 171.812999 -2.421084 -0.000005 -0.000004 -0.895042 -14.670929 0.670823 0.741826 -0.000004 -0.000002 -0.253293 74.031123 -5.966784 -4.468969 25.456931 7.342038 0.000000 
53.662601 -4.234062 96.051498 -4.505295 1.728914 1.945999 -0.441529 -0.652070 -0.122141 3.124580 -1.296380 -0.244321 4.769819 -1.299256 -0.228642 10.082944 0.167440 -4.150684 -1.276779 0.513835 -4.239346 -18.490210 -59.169205 -21.856045 -43.811316 -120.832576 -21.133293 0.000000 0.000001 -0.000000 0.049053 -6.380528 -0.686888 -0.000001 0.000011 -3.027069 -5.000207 -7.999150 0.000123 -14.054991 57.076729 16.542353 -38.479302 121.004533 27.503352 -0.000004 0.000012 0.000003 0.066460 8.448454 1.238799 0.000001 0.000000 3.061550 -5.000224 7.998930 -0.000138 -0.403959 -176.086115 2.238676 -179.999991 0.000005 -1.118998 167.124798 -1.163983 -0.551043 0.000002 0.000002 0.327744 72.188563 6.820632 2.098215 25.461513 -7.350779 0.002497 -0.057502 171.824009 -2.407623 -0.000004 -0.000004 -0.895428 -14.674429 0.672051 0.741514 -0.000003 -0.000002 -0.254242 74.038001 -5.970367 -4.460709 25.456931 7.342039 -0.000000 
53.661900 -4.238322 96.052582 -4.465726 1.722069 1.938483 -0.445050 -0.651030 -0.119742 3.116597 -1.295262 -0.240036 4.761844 -1.298075 -0.224392 10.081351 0.180069 -4.148665 -1.268937 0.511832 -4.238082 -18.497494 -59.147601 -21.864592 -43.687150 -120.831101 -20.991893 0.000001 0.000001 -0.000003 0.049054 -6.373539 -0.685947 -0.000001 0.000009 -3.027072 -5.000206 -7.999151 0.000124 -14.065980 57.074560 16.555409 -38.422311 121.002880 27.433270 -0.000002 0.000014 0.000004 0.066449 8.444924 1.239992 0.000000 -0.000000 3.061538 -5.000223 7.998930 -0.000139 -0.455725 -176.079135 2.234668 -179.999991 0.000005 -1.118998 167.099089 -1.163863 -0.550554 0.000003 0.000002 0.328153 72.203057 6.821499 2.094565 25.461405 -7.350786 0.002285 -0.095567 171.835019 -2.394007 -0.000005 -0.000004 -0.895821 -14.678037 0.673233 0.741183 -0.000004 -0.000002 -0.255201 74.044886 -5.973980 -4.452348 25.456926 7.342039 -0.000002 
